<svg width="132" height="32" viewBox="0 0 132 32" fill="none" xmlns="http://www.w3.org/2000/svg">
<path d="M41.125 25V7.53906H52.6797V10.5859H44.8047V15.3789H51.918V18.3672H44.8047V25H41.125ZM59.2656 25.2578C57.9453 25.2578 56.8008 24.9766 55.832 24.4141C54.8711 23.8438 54.1289 23.0547 53.6055 22.0469C53.0898 21.0312 52.832 19.8516 52.832 18.5078C52.832 17.1484 53.0898 15.9648 53.6055 14.957C54.1289 13.9414 54.8711 13.1523 55.832 12.5898C56.8008 12.0195 57.9453 11.7344 59.2656 11.7344C60.5938 11.7344 61.7383 12.0195 62.6992 12.5898C63.668 13.1523 64.4102 13.9414 64.9258 14.957C65.4492 15.9648 65.7109 17.1484 65.7109 18.5078C65.7109 19.8516 65.4492 21.0312 64.9258 22.0469C64.4102 23.0547 63.668 23.8438 62.6992 24.4141C61.7383 24.9766 60.5938 25.2578 59.2656 25.2578ZM59.2891 22.4219C59.8906 22.4219 60.3945 22.2539 60.8008 21.918C61.207 21.5742 61.5117 21.1055 61.7148 20.5117C61.9258 19.918 62.0312 19.2422 62.0312 18.4844C62.0312 17.7188 61.9258 17.043 61.7148 16.457C61.5117 15.8711 61.207 15.4102 60.8008 15.0742C60.3945 14.7383 59.8906 14.5703 59.2891 14.5703C58.6797 14.5703 58.168 14.7383 57.7539 15.0742C57.3477 15.4102 57.0391 15.8711 56.8281 16.457C56.625 17.043 56.5234 17.7188 56.5234 18.4844C56.5234 19.2422 56.625 19.918 56.8281 20.5117C57.0391 21.1055 57.3477 21.5742 57.7539 21.918C58.168 22.2539 58.6797 22.4219 59.2891 22.4219ZM67.3164 25V11.8984H70.8203V14.1953H70.9609C71.2031 13.3828 71.6055 12.7695 72.168 12.3555C72.7305 11.9336 73.375 11.7227 74.1016 11.7227C74.2891 11.7227 74.4844 11.7344 74.6875 11.7578C74.8984 11.7734 75.0859 11.8047 75.25 11.8516V15.0625C75.0781 15.0078 74.8398 14.9648 74.5352 14.9336C74.2383 14.8945 73.9609 14.875 73.7031 14.875C73.1797 14.875 72.707 14.9922 72.2852 15.2266C71.8633 15.4531 71.5312 15.7734 71.2891 16.1875C71.0547 16.5938 70.9375 17.0625 70.9375 17.5938V25H67.3164ZM83.9453 11.8984V14.6406H76.0586V11.8984H83.9453ZM77.8516 8.78125H81.4727V20.9688C81.4727 21.4062 81.5703 21.7305 81.7656 21.9414C81.9609 22.1445 82.2734 22.2461 82.7031 22.2461C82.8438 22.2461 83 22.2344 83.1719 22.2109C83.3438 22.1875 83.4922 22.1602 83.6172 22.1289L84.1914 24.8477C83.793 24.9648 83.4062 25.0508 83.0312 25.1055C82.6641 25.1602 82.3008 25.1875 81.9414 25.1875C80.6367 25.1875 79.6289 24.8633 78.918 24.2148C78.207 23.5586 77.8516 22.6367 77.8516 21.4492V8.78125ZM85.5273 25V11.8984H89.0312V14.1953H89.1719C89.4141 13.3828 89.8164 12.7695 90.3789 12.3555C90.9414 11.9336 91.5859 11.7227 92.3125 11.7227C92.5 11.7227 92.6953 11.7344 92.8984 11.7578C93.1094 11.7734 93.2969 11.8047 93.4609 11.8516V15.0625C93.2891 15.0078 93.0508 14.9648 92.7461 14.9336C92.4492 14.8945 92.1719 14.875 91.9141 14.875C91.3906 14.875 90.918 14.9922 90.4961 15.2266C90.0742 15.4531 89.7422 15.7734 89.5 16.1875C89.2656 16.5938 89.1484 17.0625 89.1484 17.5938V25H85.5273ZM99.9062 25.2578C98.5625 25.2578 97.4023 24.9844 96.4258 24.4375C95.4492 23.8906 94.6992 23.1133 94.1758 22.1055C93.6602 21.0898 93.4023 19.8906 93.4023 18.5078C93.4023 17.1641 93.6602 15.9844 94.1758 14.9688C94.6992 13.9531 95.4336 13.1602 96.3789 12.5898C97.332 12.0195 98.4492 11.7344 99.7305 11.7344C100.598 11.7344 101.406 11.875 102.156 12.1562C102.906 12.4297 103.562 12.8438 104.125 13.3984C104.688 13.9453 105.125 14.6367 105.438 15.4727C105.75 16.3008 105.906 17.2734 105.906 18.3906V19.375H94.8438V17.1367H104.148L102.461 17.7227C102.461 17.0586 102.359 16.4805 102.156 15.9883C101.953 15.4961 101.648 15.1172 101.242 14.8516C100.844 14.5781 100.348 14.4414 99.7539 14.4414C99.1602 14.4414 98.6562 14.5781 98.2422 14.8516C97.8359 15.125 97.5234 15.4961 97.3047 15.9648C97.0859 16.4336 96.9766 16.9727 96.9766 17.582V19.1641C96.9766 19.875 97.1016 20.4844 97.3516 20.9922C97.6016 21.4922 97.9492 21.8789 98.3945 22.1523C98.8477 22.418 99.3672 22.5508 99.9531 22.5508C100.359 22.5508 100.727 22.4922 101.055 22.375C101.383 22.2578 101.664 22.0859 101.898 21.8594C102.141 21.6328 102.32 21.3594 102.438 21.0391L105.789 21.2617C105.625 22.0664 105.281 22.7695 104.758 23.3711C104.242 23.9648 103.574 24.4297 102.754 24.7656C101.934 25.0938 100.984 25.2578 99.9062 25.2578ZM118.34 15.6367L115.023 15.8359C114.938 15.4219 114.707 15.0664 114.332 14.7695C113.957 14.4648 113.453 14.3125 112.82 14.3125C112.258 14.3125 111.785 14.4297 111.402 14.6641C111.027 14.8984 110.84 15.2109 110.84 15.6016C110.84 15.9141 110.961 16.1836 111.203 16.4102C111.453 16.6289 111.879 16.8008 112.48 16.9258L114.859 17.3945C116.133 17.6523 117.082 18.0703 117.707 18.6484C118.332 19.2266 118.645 19.9883 118.645 20.9336C118.645 21.8008 118.395 22.5586 117.895 23.207C117.395 23.8477 116.707 24.3516 115.832 24.7188C114.957 25.0781 113.953 25.2578 112.82 25.2578C111.086 25.2578 109.703 24.8945 108.672 24.168C107.648 23.4414 107.051 22.457 106.879 21.2148L110.43 21.0273C110.547 21.5586 110.812 21.9609 111.227 22.2344C111.641 22.5078 112.172 22.6445 112.82 22.6445C113.453 22.6445 113.965 22.5195 114.355 22.2695C114.754 22.0195 114.953 21.7031 114.953 21.3203C114.953 20.6719 114.391 20.2344 113.266 20.0078L111.004 19.5391C109.73 19.2812 108.781 18.8398 108.156 18.2148C107.531 17.5898 107.219 16.7891 107.219 15.8125C107.219 14.9688 107.449 14.2422 107.91 13.6328C108.371 13.0234 109.016 12.5547 109.844 12.2266C110.68 11.8984 111.656 11.7344 112.773 11.7344C114.43 11.7344 115.73 12.0859 116.676 12.7891C117.629 13.4844 118.184 14.4336 118.34 15.6367ZM131.043 15.6367L127.727 15.8359C127.641 15.4219 127.41 15.0664 127.035 14.7695C126.66 14.4648 126.156 14.3125 125.523 14.3125C124.961 14.3125 124.488 14.4297 124.105 14.6641C123.73 14.8984 123.543 15.2109 123.543 15.6016C123.543 15.9141 123.664 16.1836 123.906 16.4102C124.156 16.6289 124.582 16.8008 125.184 16.9258L127.562 17.3945C128.836 17.6523 129.785 18.0703 130.41 18.6484C131.035 19.2266 131.348 19.9883 131.348 20.9336C131.348 21.8008 131.098 22.5586 130.598 23.207C130.098 23.8477 129.41 24.3516 128.535 24.7188C127.66 25.0781 126.656 25.2578 125.523 25.2578C123.789 25.2578 122.406 24.8945 121.375 24.168C120.352 23.4414 119.754 22.457 119.582 21.2148L123.133 21.0273C123.25 21.5586 123.516 21.9609 123.93 22.2344C124.344 22.5078 124.875 22.6445 125.523 22.6445C126.156 22.6445 126.668 22.5195 127.059 22.2695C127.457 22.0195 127.656 21.7031 127.656 21.3203C127.656 20.6719 127.094 20.2344 125.969 20.0078L123.707 19.5391C122.434 19.2812 121.484 18.8398 120.859 18.2148C120.234 17.5898 119.922 16.7891 119.922 15.8125C119.922 14.9688 120.152 14.2422 120.613 13.6328C121.074 13.0234 121.719 12.5547 122.547 12.2266C123.383 11.8984 124.359 11.7344 125.477 11.7344C127.133 11.7344 128.434 12.0859 129.379 12.7891C130.332 13.4844 130.887 14.4336 131.043 15.6367Z" fill="black"/>
<g clip-path="url(#clip0_59_481)">
<path d="M31.9559 17.1998H26.2402C21.2475 17.1998 17.2002 21.2472 17.2002 26.2398V31.9555C25.0801 31.3712 31.3716 25.0798 31.9559 17.1998Z" fill="#F24913"/>
<path d="M14.8001 31.9555V26.2398C14.8001 21.2472 10.7528 17.1998 5.76011 17.1998H0.0444336C0.628701 25.0798 6.92019 31.3712 14.8001 31.9555Z" fill="#F24913"/>
<path d="M31.9559 14.7998C31.3716 6.9199 25.0801 0.628411 17.2002 0.0441437V5.75982C17.2002 10.7525 21.2475 14.7998 26.2402 14.7998H31.9559Z" fill="#F24913"/>
<path d="M14.8001 0.0441437C6.92019 0.628411 0.628701 6.9199 0.0444336 14.7998H5.76011C10.7528 14.7998 14.8001 10.7525 14.8001 5.75982V0.0441437Z" fill="#F24913"/>
</g>
<defs>
<clipPath id="clip0_59_481">
<rect width="32" height="32" fill="white"/>
</clipPath>
</defs>
</svg>
